# xmcd CD database file
#
# Track frame offsets:
#	150
#	17176
#	34621
#	55863
#	76176
#	86919
#	109337
#	132517
#	151765
#	168477
#	179422
#	200756
#
# Disc length: 3038 seconds
#
# Revision: 0
# Processed by: cddbd v1.4PL0 Copyright (c) Steve Scherf et al.
# Submitted via: CDex 1.50
#
DISCID=9e0bdc0c
DTITLE=Dixie Chicks - HOME
DYEAR=1900
DGENRE=Country
TTITLE0=Long Time Gone
TTITLE1=Landslide 
TTITLE2=Travelin' Soldier
TTITLE3=Truth No. 2
TTITLE4=White Trash Wedding
TTITLE5=A Home
TTITLE6=More Love
TTITLE7=I Believe In Love
TTITLE8=Tortured, Tangled Hearts
TTITLE9=Lil' Jack Slade
TTITLE10=Godspeed (Sweet Dreams)
TTITLE11=Top Of The World
EXTD=
EXTT0=
EXTT1=
EXTT2=
EXTT3=
EXTT4=
EXTT5=
EXTT6=
EXTT7=
EXTT8=
EXTT9=
EXTT10=
EXTT11=
PLAYORDER=
